<svg preserveAspectRatio="none" width="100%" height="100%" overflow="visible" style="display: block;" viewBox="0 0 113.16 20.0078" fill="none" xmlns="http://www.w3.org/2000/svg">
<path id="logo" d="M96.9102 0C99.3492 6.10668e-05 101.261 0.56 102.646 1.68066C104.038 2.80138 104.829 4.33459 105.026 6.2793H100.486C100.289 4.43349 99.0689 3.50986 96.8359 3.50977C95.8306 3.50977 95.0309 3.69167 94.4541 4.0625C93.8774 4.4333 93.5889 4.95217 93.5889 5.61133C93.5889 5.83383 93.6301 6.04039 93.7207 6.22168C93.8031 6.40282 93.9519 6.56746 94.166 6.69922C94.3719 6.83099 94.5777 6.94693 94.7754 7.0293C94.9731 7.11167 95.2534 7.2018 95.624 7.28418C95.9948 7.36658 96.3164 7.44091 96.5801 7.50684C96.852 7.57276 97.2231 7.63885 97.6846 7.72949C98.1542 7.81188 98.5172 7.88611 98.7891 7.93555C99.5799 8.10856 100.223 8.26466 100.726 8.39648C101.228 8.52834 101.813 8.75138 102.48 9.06445C103.148 9.36934 103.667 9.71568 104.046 10.0947C104.425 10.4738 104.763 10.9926 105.043 11.6436C105.323 12.2946 105.472 13.0531 105.472 13.9102C105.472 15.7805 104.738 17.2635 103.271 18.3594C101.805 19.4553 99.8848 20 97.4951 20L97.5117 20.0078C94.8088 20.0078 92.6905 19.4146 91.166 18.2197C89.6415 17.0249 88.8012 15.3931 88.6611 13.333H93.3086C93.63 15.426 95.0062 16.4726 97.4453 16.4727C98.5495 16.4727 99.4063 16.2744 100.008 15.8789C100.609 15.4834 100.915 14.9564 100.915 14.2891C100.915 14.042 100.874 13.8193 100.783 13.6299C100.701 13.4321 100.552 13.2503 100.338 13.0938C100.132 12.9374 99.9426 12.8059 99.7861 12.707C99.6296 12.6081 99.3487 12.509 98.9531 12.4102C98.5577 12.3113 98.2611 12.2369 98.0469 12.1875C97.8408 12.1381 97.4782 12.0721 96.9756 11.9814C96.473 11.899 96.1187 11.8248 95.9209 11.7754C94.8908 11.5776 94.0416 11.3803 93.3906 11.166C92.7397 10.9518 92.0557 10.6459 91.3389 10.2422C90.6222 9.83844 90.0949 9.28662 89.7324 8.57812C89.3781 7.87767 89.1963 7.03673 89.1963 6.04785C89.1964 4.07855 89.9135 2.57885 91.3555 1.54883C92.7976 0.51875 94.644 0 96.9102 0ZM74.7012 12.2949C74.7013 14.5855 75.7479 15.7304 77.8408 15.7305C78.9943 15.7305 79.9172 15.3354 80.6094 14.5527C81.2933 13.7616 81.6396 12.7314 81.6396 11.4541V0.527344H86.6582V19.4561H81.8291V17.2393H81.7227C81.0304 18.1787 80.2801 18.8626 79.4561 19.3076C78.632 19.7526 77.577 19.9746 76.2998 19.9746C74.2315 19.9746 72.6248 19.3567 71.4629 18.1289C70.3092 16.9011 69.7237 15.2366 69.7236 13.1436V0.527344H74.7012V12.2949ZM38.7559 0.0410156C44.071 0.0410374 46.7246 2.365 46.7246 7.0127V16.6455C46.7246 18.0711 46.9466 18.9452 47.3916 19.2666V19.4473H42.5547V19.4561C42.3075 19.1347 42.1093 18.434 41.9609 17.3545H41.8877C41.3438 18.1703 40.6589 18.7962 39.8184 19.2412C38.9778 19.6861 37.816 19.9092 36.3164 19.9092C34.3222 19.9092 32.7236 19.4061 31.5205 18.3926C30.3175 17.3873 29.7159 15.9536 29.7158 14.1162C29.7158 12.2787 30.3834 10.7869 31.71 9.88867C33.0367 8.99044 34.9078 8.37247 37.3223 8.02637C39.0938 7.77916 40.2967 7.53126 40.9395 7.26758C41.5821 7.01217 41.8954 6.55106 41.8955 5.88379C41.8955 5.2163 41.6235 4.64695 41.0879 4.24316C40.544 3.83945 39.7609 3.63379 38.7227 3.63379C36.4319 3.63383 35.2206 4.51546 35.0723 6.28711H30.6055C30.6796 4.49067 31.4051 2.99871 32.7812 1.82031C34.1574 0.633759 36.1437 0.0410156 38.7559 0.0410156ZM60.3545 0.0078125C62.2992 0.00783232 63.8731 0.666986 65.0762 1.98535C66.2793 3.30385 66.8809 5.00986 66.8809 7.09473V19.4561H61.8623V7.82812C61.8623 6.79811 61.5739 5.95775 60.9971 5.32324C60.4203 4.68878 59.6129 4.36726 58.583 4.36719C57.4788 4.36719 56.5553 4.77109 55.8301 5.58691C55.105 6.39447 54.7422 7.44114 54.7422 8.72656V19.4639H49.7236V0.527344H54.6357V3.10645H54.7422C56.0442 1.03805 57.9153 0.0078125 60.3545 0.0078125ZM21.4424 0.0078125C23.4116 0.0078672 24.9441 0.601224 26.04 1.7959C27.136 2.99073 27.6806 4.63065 27.6807 6.72363V19.4561H22.6621V7.57227C22.662 5.40528 21.6888 4.32617 19.7441 4.32617C18.6895 4.32627 17.8573 4.70528 17.2559 5.45508C16.6544 6.20496 16.3496 7.21039 16.3496 8.46289V19.4561H11.3311V7.57227C11.3309 5.40542 10.3585 4.32631 8.41406 4.32617C7.40871 4.32617 6.5843 4.70518 5.95801 5.45508C5.33178 6.20496 5.01855 7.21038 5.01855 8.46289V19.4561H0V0.527344H4.83691V3.07324H4.94434C6.1474 1.02972 7.98496 0.00793569 10.4404 0.0078125C11.6187 0.0078125 12.6738 0.312647 13.5967 0.914062C14.5196 1.51563 15.2119 2.32375 15.6816 3.3291H15.7559C17.132 1.11237 19.0279 0.0078125 21.4424 0.0078125ZM113.16 19.4561H107.771V14.1074H113.16V19.4561ZM42.0029 9.92969C41.459 10.2511 40.2882 10.6221 38.5 11.0342C37.0746 11.3555 36.0606 11.7173 35.4756 12.1211C34.8823 12.5249 34.5947 13.1521 34.5947 13.9844C34.5949 15.5826 35.5749 16.3817 37.5439 16.3818L37.5361 16.3906C38.9123 16.3906 40.0005 16.0363 40.7998 15.3193C41.5991 14.6024 42.0029 13.7613 42.0029 12.7725V9.92969Z" fill="var(--fill-0, white)"/>
</svg>
