<svg preserveAspectRatio="none" width="100%" height="100%" overflow="visible" style="display: block;" viewBox="0 0 113.16 20" fill="none" xmlns="http://www.w3.org/2000/svg">
<g id="logo" clip-path="url(#clip0_86_106)">
<path id="logo_2" d="M96.9102 -0.0078125C99.3492 -0.00775143 101.261 0.552187 102.646 1.67285C104.038 2.79356 104.829 4.32678 105.026 6.27148H100.486C100.289 4.42568 99.0689 3.50205 96.8359 3.50195C95.8306 3.50195 95.0309 3.68386 94.4541 4.05469C93.8774 4.42549 93.5889 4.94436 93.5889 5.60352C93.5889 5.82601 93.6301 6.03257 93.7207 6.21387C93.8031 6.39501 93.9519 6.55965 94.166 6.69141C94.3719 6.82318 94.5777 6.93912 94.7754 7.02148C94.9731 7.10386 95.2534 7.19399 95.624 7.27637C95.9948 7.35877 96.3164 7.4331 96.5801 7.49902C96.852 7.56495 97.2231 7.63103 97.6846 7.72168C98.1542 7.80407 98.5172 7.8783 98.7891 7.92773C99.5799 8.10075 100.223 8.25685 100.726 8.38867C101.228 8.52053 101.813 8.74356 102.48 9.05664C103.148 9.36153 103.667 9.70787 104.046 10.0869C104.425 10.466 104.763 10.9848 105.043 11.6357C105.323 12.2868 105.472 13.0453 105.472 13.9023C105.472 15.7727 104.738 17.2556 103.271 18.3516C101.805 19.4475 99.8848 19.9921 97.4951 19.9922L97.5117 20C94.8088 20 92.6905 19.4068 91.166 18.2119C89.6415 17.017 88.8012 15.3853 88.6611 13.3252H93.3086C93.63 15.4182 95.0062 16.4648 97.4453 16.4648C98.5495 16.4648 99.4063 16.2666 100.008 15.8711C100.609 15.4756 100.915 14.9486 100.915 14.2812C100.915 14.0342 100.874 13.8115 100.783 13.6221C100.701 13.4243 100.552 13.2425 100.338 13.0859C100.132 12.9295 99.9426 12.7981 99.7861 12.6992C99.6296 12.6003 99.3487 12.5012 98.9531 12.4023C98.5577 12.3035 98.2611 12.2291 98.0469 12.1797C97.8408 12.1302 97.4782 12.0643 96.9756 11.9736C96.473 11.8912 96.1187 11.817 95.9209 11.7676C94.8908 11.5698 94.0416 11.3725 93.3906 11.1582C92.7397 10.944 92.0557 10.6381 91.3389 10.2344C90.6222 9.83063 90.0949 9.27881 89.7324 8.57031C89.3781 7.86986 89.1963 7.02891 89.1963 6.04004C89.1964 4.07073 89.9135 2.57103 91.3555 1.54102C92.7976 0.510937 94.644 -0.0078125 96.9102 -0.0078125ZM74.7012 12.2871C74.7013 14.5777 75.7479 15.7226 77.8408 15.7227C78.9943 15.7227 79.9172 15.3276 80.6094 14.5449C81.2933 13.7538 81.6396 12.7236 81.6396 11.4463V0.519531H86.6582V19.4482H81.8291V17.2314H81.7227C81.0304 18.1709 80.2801 18.8548 79.4561 19.2998C78.632 19.7447 77.577 19.9668 76.2998 19.9668C74.2315 19.9668 72.6248 19.3489 71.4629 18.1211C70.3092 16.8933 69.7237 15.2288 69.7236 13.1357V0.519531H74.7012V12.2871ZM38.7559 0.0332031C44.071 0.0332249 46.7246 2.35719 46.7246 7.00488V16.6377C46.7246 18.0633 46.9466 18.9374 47.3916 19.2588V19.4395H42.5547V19.4482C42.3075 19.1269 42.1093 18.4261 41.9609 17.3467H41.8877C41.3438 18.1625 40.6589 18.7884 39.8184 19.2334C38.9778 19.6783 37.816 19.9014 36.3164 19.9014C34.3222 19.9013 32.7236 19.3983 31.5205 18.3848C30.3175 17.3795 29.7159 15.9458 29.7158 14.1084C29.7158 12.2708 30.3834 10.7791 31.71 9.88086C33.0367 8.98263 34.9078 8.36466 37.3223 8.01855C39.0938 7.77135 40.2967 7.52345 40.9395 7.25977C41.5821 7.00436 41.8954 6.54324 41.8955 5.87598C41.8955 5.20849 41.6235 4.63914 41.0879 4.23535C40.544 3.83164 39.7609 3.62598 38.7227 3.62598C36.4319 3.62602 35.2206 4.50765 35.0723 6.2793H30.6055C30.6796 4.48286 31.4051 2.9909 32.7812 1.8125C34.1574 0.625947 36.1437 0.0332031 38.7559 0.0332031ZM60.3545 0C62.2992 1.98165e-05 63.8731 0.659173 65.0762 1.97754C66.2793 3.29603 66.8809 5.00205 66.8809 7.08691V19.4482H61.8623V7.82031C61.8623 6.79029 61.5739 5.94994 60.9971 5.31543C60.4203 4.68097 59.6129 4.35945 58.583 4.35938C57.4788 4.35938 56.5553 4.76328 55.8301 5.5791C55.105 6.38665 54.7422 7.43333 54.7422 8.71875V19.4561H49.7236V0.519531H54.6357V3.09863H54.7422C56.0442 1.03024 57.9153 0 60.3545 0ZM21.4424 0C23.4116 5.47025e-05 24.9441 0.593411 26.04 1.78809C27.136 2.98292 27.6806 4.62284 27.6807 6.71582V19.4482H22.6621V7.56445C22.662 5.39746 21.6888 4.31836 19.7441 4.31836C18.6895 4.31846 17.8573 4.69746 17.2559 5.44727C16.6544 6.19715 16.3496 7.20258 16.3496 8.45508V19.4482H11.3311V7.56445C11.3309 5.39761 10.3585 4.3185 8.41406 4.31836C7.40871 4.31836 6.5843 4.69737 5.95801 5.44727C5.33178 6.19715 5.01855 7.20256 5.01855 8.45508V19.4482H0V0.519531H4.83691V3.06543H4.94434C6.1474 1.02191 7.98496 0.000123187 10.4404 0C11.6187 0 12.6738 0.304835 13.5967 0.90625C14.5196 1.50782 15.2119 2.31593 15.6816 3.32129H15.7559C17.132 1.10456 19.0279 0 21.4424 0ZM113.16 19.4482H107.771V14.0996H113.16V19.4482ZM42.0029 9.92188C41.459 10.2433 40.2882 10.6143 38.5 11.0264C37.0746 11.3477 36.0606 11.7095 35.4756 12.1133C34.8823 12.5171 34.5947 13.1443 34.5947 13.9766C34.5949 15.5748 35.5749 16.3739 37.5439 16.374L37.5361 16.3828C38.9123 16.3828 40.0005 16.0284 40.7998 15.3115C41.5991 14.5946 42.0029 13.7535 42.0029 12.7646V9.92188Z" fill="var(--fill-0, black)"/>
</g>
<defs>
<clipPath id="clip0_86_106">
<rect width="113.16" height="20" fill="white"/>
</clipPath>
</defs>
</svg>
